<?xml version="1.0" encoding="UTF-8" standalone="no"?>
<!DOCTYPE svg PUBLIC "-//W3C//DTD SVG 1.1//EN" "http://www.w3.org/Graphics/SVG/1.1/DTD/svg11.dtd">
<svg width="100%" height="100%" viewBox="0 0 24 24" version="1.1" xmlns="http://www.w3.org/2000/svg" xmlns:xlink="http://www.w3.org/1999/xlink" xml:space="preserve" xmlns:serif="http://www.serif.com/" style="fill-rule:evenodd;clip-rule:evenodd;stroke-linecap:round;stroke-linejoin:round;">
    <path d="M13.4,2L6,2C4.903,2 4,2.903 4,4L4,20C4,21.097 4.903,22 6,22L18,22C19.097,22 20,21.097 20,20L20,12.6" style="fill:none;fill-rule:nonzero;stroke:rgb(217,217,217);stroke-width:2px;"/>
    <path d="M2,6L6,6" style="fill:none;fill-rule:nonzero;stroke:rgb(217,217,217);stroke-width:2px;"/>
    <path d="M2,10L6,10" style="fill:none;fill-rule:nonzero;stroke:rgb(217,217,217);stroke-width:2px;"/>
    <path d="M2,14L6,14" style="fill:none;fill-rule:nonzero;stroke:rgb(217,217,217);stroke-width:2px;"/>
    <path d="M2,18L6,18" style="fill:none;fill-rule:nonzero;stroke:rgb(217,217,217);stroke-width:2px;"/>
    <path d="M18.4,2.6C18.751,2.374 19.159,2.253 19.577,2.253C20.767,2.253 21.747,3.233 21.747,4.423C21.747,4.841 21.626,5.249 21.4,5.6L16,11L12,12L13,8L18.4,2.6Z" style="fill:none;fill-rule:nonzero;stroke:rgb(217,217,217);stroke-width:2px;"/>
</svg>
